<?xml version="1.0" standalone="no"?>
<!DOCTYPE svg PUBLIC "-//W3C//DTD SVG 1.1//EN" "http://www.w3.org/Graphics/SVG/1.1/DTD/svg11.dtd" >
<svg xmlns="http://www.w3.org/2000/svg" xmlns:xlink="http://www.w3.org/1999/xlink" version="1.1">
<metadata></metadata>
<defs>
<font id="pokemon_solidnormal" horiz-adv-x="1126" >
<font-face units-per-em="2048" ascent="1638" descent="-410" />
<missing-glyph horiz-adv-x="1024" />
<glyph horiz-adv-x="0" />
<glyph unicode="&#xd;" horiz-adv-x="0" />
<glyph unicode=" "  horiz-adv-x="1024" />
<glyph unicode="&#x09;" horiz-adv-x="1024" />
<glyph unicode="&#xa0;" horiz-adv-x="1024" />
<glyph unicode="!" horiz-adv-x="410" d="M-115 1802l598 180l-123 -1253l-344 -33zM-8 176q0 86 41.5 160t130.5 82q71 0 122.5 -23.5t84.5 -57t45 -58.5q12 -28 12 -60q0 -49 -21 -98.5t-51.5 -87t-56.5 -41.5q-54 -8 -78 -8q-99 0 -158.5 51.5t-70.5 140.5z" />
<glyph unicode="&#x22;" horiz-adv-x="1024" d="M-82 1788l416 -59l-41 -609l-213 29zM532 1788l416 -59l-41 -609l-213 29z" />
<glyph unicode="#" d="M-33 860l25 287l237 8l9 123l-213 16l24 303h262l8 271l271 -8l-41 -263h188l74 271h221l-33 -279h164l-65 -311l-115 16l-25 -147l115 8l-41 -303h-114l-41 -147l-254 -17l8 172h-213l-33 -188l-238 -41l33 237zM492 1155h188l25 131h-189z" />
<glyph unicode="$" d="M-197 123q15 31 48.5 122.5t57 158.5t43 118t23.5 51q28 -23 188 -100.5t247 -87.5q32 -3 109 -24t105.5 -28t67.5 -7q46 0 70 18q45 33 45 70q0 82 -209 192q-128 67 -284.5 187.5t-274 279t-117.5 316.5q0 81 37 159q42 89 112.5 141t168.5 74.5t227 22.5 q6 51 15.5 126t9.5 87l344 -33l-15 -233q164 -39 490 -144q-22 -50 -94 -250t-78 -200q-8 8 -91.5 52.5t-182 86.5t-160.5 49q-28 3 -130.5 31t-152.5 28q-46 0 -70 -18q-41 -29 -41 -68q0 -36 34 -78.5t89 -84.5t122 -82t132 -72q134 -66 232.5 -150.5t153.5 -168.5 t80.5 -170.5t25.5 -163.5q0 -91 -33 -166q-63 -135 -186 -190.5t-299 -55.5q-5 -8 -5 -45q0 -32 5.5 -100.5t9.5 -100.5l-377 49l22 246q-70 16 -158.5 42t-169.5 52.5t-186 61.5z" />
<glyph unicode="%" horiz-adv-x="1434" d="M-180 -344l1220 2073l549 24l-1253 -2081zM-92 1319q0 133 64 248t206 129q15 2 41 2q70 0 130 -23t104 -58t74.5 -72t43.5 -66q19 -37 19 -95q0 -70 -32 -150t-80 -137.5t-89 -66.5q-64 -12 -121 -12q-102 0 -180 36.5t-123.5 104.5t-56.5 160zM891 164q0 133 64 248 t206 129q15 2 41 2q70 0 130 -23t104 -58t74.5 -72t43.5 -66q19 -37 19 -95q0 -70 -32.5 -151t-81 -138.5t-87.5 -64.5q-64 -12 -121 -12q-102 0 -180 36.5t-123.5 104.5t-56.5 160z" />
<glyph unicode="&#x26;" horiz-adv-x="1229" d="M-150 518q0 146 109 318q49 77 101 128.5t93 76t62.5 32t30.5 8.5q-201 242 -201 375q0 31 12 60q61 131 180.5 187t286.5 56l8 183h410l-49 -232q65 -15 161.5 -43t201.5 -61.5t153 -49.5q-22 -50 -94 -250t-78 -200q-9 11 -40 51t-58 55q-32 20 -119.5 43.5 t-182.5 41.5t-190 30t-149 12q-27 0 -47 -4q-19 -6 -19 -24q0 -40 60.5 -116t151 -133.5t171.5 -57.5q13 0 37 4l8 -295q-207 23 -401 106q-33 -7 -94.5 -72t-61.5 -108q0 -44 25 -102.5t119.5 -112t281.5 -53.5q202 0 483 71l66 -311l-526 -90l-31 -188h-336l25 172 q-173 18 -320 99t-213 253q-27 67 -27 141z" />
<glyph unicode="'" horiz-adv-x="410" d="M20 1788l416 -59l-41 -609l-213 29z" />
<glyph unicode="(" horiz-adv-x="819" d="M8 754q0 28 4 82q22 226 137.5 414t266 322t289 214.5t204.5 97.5l-57 -409q-42 -30 -131 -110.5t-188.5 -224.5t-126.5 -311q-9 -50 -9 -90q0 -150 90.5 -307.5t290.5 -316.5l-49 -475q-201 144 -340.5 290t-223 289t-120.5 277.5t-37 257.5z" />
<glyph unicode=")" horiz-adv-x="819" d="M-90 1884q67 -16 205.5 -97.5t289 -215t266 -322.5t136.5 -413q4 -54 4 -82q0 -128 -36 -259.5t-120 -275t-223.5 -289.5t-341.5 -290l-49 475q201 158 291 315t90 309q0 34 -8 90q-28 168 -127.5 311.5t-188.5 224t-131 110.5z" />
<glyph unicode="*" horiz-adv-x="819" d="M-139 1589l196 230l181 -172l-9 262l312 -8v-295l196 172l172 -205l-295 -213l230 -352l-271 -74l-221 295l-213 -303l-213 188l238 270z" />
<glyph unicode="+" horiz-adv-x="922" d="M-8 795l24 270l336 31l25 313h319l-32 -287l311 33l-33 -328l-336 -10l-41 -334h-311l41 324z" />
<glyph unicode="," horiz-adv-x="819" d="M-76 -209l594 465l191 -68l-404 -530z" />
<glyph unicode="-" horiz-adv-x="922" d="M-8 795l24 270l959 90l-33 -328z" />
<glyph unicode="." horiz-adv-x="410" d="M-8 176q0 86 41.5 160t130.5 82q71 0 122.5 -23.5t84.5 -57t45 -58.5q12 -28 12 -60q0 -49 -21 -98.5t-51.5 -87t-56.5 -41.5q-54 -8 -78 -8q-99 0 -158.5 51.5t-70.5 140.5z" />
<glyph unicode="/" horiz-adv-x="1434" d="M-180 -344l1220 2073l549 24l-1253 -2081z" />
<glyph unicode="0" d="M-66 827q0 148 28 293t102.5 271t210.5 205.5t339 82.5q175 0 294.5 -72.5t188.5 -194t96.5 -262t27.5 -292.5v-47q-5 -153 -94.5 -345.5t-242 -325t-335.5 -132.5q-181 0 -316 85.5t-212.5 269t-86.5 464.5zM352 803q0 -66 26 -128t78.5 -102.5t125.5 -40.5 q81 10 130.5 41t76 92.5t30.5 153.5q0 148 -64 235t-182 93q-82 0 -131 -52.5t-69.5 -131t-20.5 -160.5z" />
<glyph unicode="1" horiz-adv-x="512" d="M-131 1425l49 246l623 205l16 -1876l-451 -25l25 1475z" />
<glyph unicode="2" d="M-82 1589q121 40 227.5 74t224.5 64.5t225.5 48.5t211.5 18q81 0 149 -12.5t128.5 -41.5t108 -77.5t77.5 -114.5q22 -47 22 -110q0 -99 -46.5 -219t-132.5 -238t-197.5 -204.5t-235.5 -121.5q-167 -45 -261.5 -225t-123.5 -291l983 172l-98 -311l-1254 -213 q0 310 37.5 520.5t95.5 327t120 169.5t136 83q96 3 196.5 57t186.5 133.5t139.5 155.5t53.5 113q0 19 -14 22q-25 6 -56 6q-54 0 -163.5 -22t-133.5 -25q-62 -7 -161 -49.5t-181.5 -86t-91.5 -52.5q-3 0 -19.5 43t-44 119.5t-62 170t-46.5 117.5z" />
<glyph unicode="3" horiz-adv-x="1229" d="M-180 1556q121 40 227.5 74t224.5 64.5t225.5 48.5t211.5 18q80 0 148 -12.5t128.5 -41.5t107.5 -76.5t78 -114.5q13 -27 13 -60q0 -133 -201 -375q9 -1 31 -8.5t64 -33t93.5 -77t98.5 -126.5q108 -170 108 -318q0 -76 -26 -141q-57 -144 -171 -224.5t-239.5 -108.5 t-247.5 -28q-48 0 -82 3.5t-47 5.5l-614 106l65 311q149 -37 268.5 -54t215.5 -17q184 0 279 53t121 113t26 102q0 43 -60.5 108t-95.5 72q-197 -84 -401 -106l8 295q24 -4 35 -4q82 0 172 57.5t151.5 134t61.5 115.5q0 18 -19 24q-20 4 -47 4q-54 0 -147 -11.5t-190 -30 t-183.5 -42t-120.5 -43.5q-28 -17 -58.5 -56t-39.5 -50q-3 0 -19.5 43t-44 119.5t-62 170t-46.5 117.5z" />
<glyph unicode="4" d="M-106 737l57 803l426 41l-58 -582l287 -57l58 696l499 66l-196 -1974q-53 -23 -166 -23q-71 0 -155.5 8.5t-121.5 14.5l58 901z" />
<glyph unicode="5" horiz-adv-x="1229" d="M-254 1655q49 -2 141 -2q294 0 540.5 29t420.5 68t259 68t114 42l32 -353q-49 -20 -171 -61.5t-306.5 -82t-357.5 -40.5q-82 0 -156 12l57 -303q32 8 107 24.5t185.5 33t207.5 16.5q104 0 164 -25q9 -1 31 -8.5t64 -33t93.5 -77t98.5 -126.5q108 -170 108 -318 q0 -76 -26 -141q-57 -144 -171 -224.5t-239.5 -108.5t-247.5 -28q-48 0 -82 3.5t-47 5.5l-614 106l65 311q149 -37 268.5 -54t215.5 -17q184 0 279 53t121 113t26 102q0 43 -60.5 108t-95.5 72q-127 -54 -680 -114q-48 159 -180 520t-164 430z" />
<glyph unicode="6" horiz-adv-x="1229" d="M-57 412q0 86 27 224t71 277t90 226q88 167 220.5 325.5t367 298.5t567.5 203l-254 -401q-47 -35 -145 -117t-203.5 -195t-126.5 -196q37 21 101.5 38t123.5 17q75 0 111 -31q9 -1 31 -8.5t64 -33t93.5 -77t98.5 -126.5q108 -173 108 -318q0 -76 -26 -141 q-52 -134 -139 -219t-183.5 -126t-176.5 -53t-140 -12q-25 -2 -70 -2q-158 0 -281 47t-204 130.5t-117 193.5q-8 24 -8 76zM307 532q0 -86 60.5 -163.5t183.5 -77.5q31 0 47 2q102 13 163 55.5t85 97.5t24 113q0 40 -10 72q-27 91 -100.5 138.5t-149.5 47.5q-25 0 -53 -8 q-38 -11 -93.5 -52.5t-98.5 -92t-54 -91.5q-4 -12 -4 -41z" />
<glyph unicode="7" horiz-adv-x="1434" d="M-156 1425v394l1737 -140l-762 -1982l-483 -41l622 1679z" />
<glyph unicode="8" horiz-adv-x="1229" d="M-70 483q0 112 39.5 220.5t120.5 181.5q57 52 132 94.5t114 60.5q-320 124 -320 336q0 68 33 140q68 143 188 200.5t287 57.5q49 0 107 -5q166 -12 267 -37t176.5 -87.5t129.5 -178.5q10 -23 10 -45q0 -43 -31 -93.5t-85 -113.5t-115 -133q9 -1 31 -8.5t64 -33t93.5 -77 t98.5 -126.5q108 -170 108 -318q0 -76 -26 -141q-52 -135 -148 -219t-209 -125.5t-206.5 -53.5t-165.5 -12q-25 -2 -70 -2q-158 0 -281 47t-204 130.5t-117 193.5q-21 68 -21 147zM328 508q0 -115 245 -135q17 -2 50 -2q130 0 198 52t86.5 110.5t18.5 105.5q0 43 -60.5 108 t-95.5 72q-105 -43 -213 -71q-42 -8 -119.5 -58.5t-77.5 -91.5q-2 0 -16 -28q-16 -32 -16 -62zM406 1348q0 -16 19 -30t60 -34t113 -55q71 35 118 58.5t70 39t23 31.5q0 15 -14 26q-27 25 -84 41.5t-115 16.5q-129 0 -178 -66q-12 -15 -12 -28z" />
<glyph unicode="9" horiz-adv-x="1229" d="M-10 1235q0 76 26 141q68 174 190.5 265.5t240 118t208.5 26.5q25 2 70 2q156 0 279.5 -47t205.5 -131.5t117 -192.5q8 -24 8 -76q0 -136 -60 -367t-128 -360q-51 -99 -146 -280.5t-198 -352t-226.5 -322.5t-248.5 -232l-328 16q41 65 122.5 197t224.5 372t237.5 412 t111.5 240q-25 -15 -72 -24t-89 -9q-101 0 -150 41q-36 6 -117.5 57t-169.5 189q-57 89 -82.5 167.5t-25.5 149.5zM477 1188q0 -45 15 -82q33 -96 131 -96q55 0 113.5 26.5t99.5 62t41 56.5l4 12q3 13 6.5 36.5t3.5 39.5q0 141 -170 141q-17 0 -57 -4q-91 -10 -139 -62.5 t-48 -129.5z" />
<glyph unicode=":" d="M197 774q0 86 41.5 160t130.5 82q71 0 122.5 -23.5t84.5 -57t45 -58.5q12 -28 12 -60q0 -49 -21 -98.5t-51.5 -87t-56.5 -41.5q-54 -8 -78 -8q-99 0 -158.5 51.5t-70.5 140.5zM401 160q0 85 41.5 159t130.5 82q70 0 122.5 -23.5t84.5 -55.5t45 -60q13 -26 13 -59 q0 -49 -21 -99.5t-51 -86.5t-57 -42q-54 -8 -78 -8q-98 0 -158 51t-72 142z" />
<glyph unicode=";" horiz-adv-x="922" d="M-76 -209l594 465l191 -68l-404 -530zM197 774q0 86 41.5 160t130.5 82q71 0 122.5 -23.5t84.5 -57t45 -58.5q12 -28 12 -60q0 -49 -21 -98.5t-51.5 -87t-56.5 -41.5q-54 -8 -78 -8q-99 0 -158.5 51.5t-70.5 140.5z" />
<glyph unicode="&#x3c;" horiz-adv-x="1024" d="M8 1073l1204 475l-41 -344l-516 -155l475 -164l-49 -353z" />
<glyph unicode="=" horiz-adv-x="922" d="M-16 532l24 271l959 90l-33 -328zM-8 967l24 270l959 90l-33 -328z" />
<glyph unicode="&#x3e;" horiz-adv-x="1024" d="M-86 1548l1204 -475l-1073 -541l-49 353l475 164l-516 155z" />
<glyph unicode="?" d="M-82 1589q121 40 227.5 74t224.5 64.5t225.5 48.5t211.5 18q81 0 149 -12.5t128.5 -41.5t108 -77.5t77.5 -114.5q10 -20 10 -53q0 -123 -159 -324.5t-370 -375t-331 -209.5l-105 301q96 3 196.5 57t186.5 133.5t139.5 155.5t53.5 113q0 19 -14 22q-25 6 -56 6 q-54 0 -163.5 -22t-133.5 -25q-62 -7 -161 -49.5t-181.5 -86t-91.5 -52.5q-3 0 -19.5 43t-44 119.5t-62 170t-46.5 117.5zM401 160q0 85 41.5 159t130.5 82q70 0 122.5 -23.5t84.5 -55.5t45 -60q13 -26 13 -59q0 -49 -21 -99.5t-51 -86.5t-57 -42q-54 -8 -78 -8 q-98 0 -158 51t-72 142z" />
<glyph unicode="@" horiz-adv-x="1331" d="M-84 899q0 148 34.5 284t113 245.5t216.5 178.5t334 72q167 0 327 -54.5t276 -150t163 -212.5q33 -83 33 -226q0 -129 -34.5 -248.5t-119 -203.5t-219.5 -92q-125 0 -259.5 51.5t-264.5 144.5l238 328q19 -10 59.5 -24.5t69.5 -14.5q40 0 43 31q0 35 -38 68t-92.5 53.5 t-107.5 25.5q-36 0 -86 -57.5t-93 -138t-58 -148.5q-9 -35 -9 -72q0 -110 74 -180.5t176 -103t193 -37.5l-66 -418q-144 0 -293 43t-282 138t-221.5 252.5t-104.5 377.5q-2 29 -2 88z" />
<glyph unicode="A" d="M-451 -328l1090 2171l983 -2367l-418 -41l-467 1089l-262 41l-409 -868zM492 803l237 -33l-98 385z" />
<glyph unicode="B" horiz-adv-x="1229" d="M-82 1589q121 40 227.5 74t224.5 64.5t225.5 48.5t211.5 18q81 0 149 -12.5t128.5 -41.5t108 -77.5t77.5 -114.5q12 -27 12 -59q0 -133 -201 -375q37 -5 118 -55t169 -191q102 -161 102 -305q0 -177 -135.5 -297t-271.5 -173t-203 -68l-344 -91l-328 1311q-7 0 -23.5 -18 t-42 -49.5t-32.5 -38.5q-3 0 -19.5 43t-44 119.5t-62 170t-46.5 117.5zM549 1401l82 -443q36 31 109.5 102t145.5 162.5t72 149.5q0 47 -57 62q-48 10 -88 10q-51 0 -100 -8.5t-164 -34.5zM729 754l49 -320q151 63 198.5 124.5t47.5 113.5q0 43 -60.5 108t-95.5 72 q-45 -45 -84 -68.5t-55 -29.5z" />
<glyph unicode="C" horiz-adv-x="1229" d="M-84 899q0 148 34.5 284t113 245.5t216.5 178.5t334 72q130 0 256 -30.5t231 -85t180.5 -133t98.5 -168.5l-448 -293q-45 112 -301 112q-58 0 -119 -83t-61 -187q5 -79 47 -151.5t149 -77.5q80 0 168 43t152 172q4 -8 83 -75t161.5 -134t121.5 -99q-76 -182 -201 -285 t-262 -141t-272 -38q-189 0 -332.5 71.5t-235.5 245t-112 469.5q-2 29 -2 88z" />
<glyph unicode="D" horiz-adv-x="1331" d="M-41 1622q231 75 435 121.5t380 46.5q378 0 496 -242q47 -94 78.5 -194.5t46 -200.5t14.5 -197q0 -174 -46.5 -334t-133.5 -286.5t-210.5 -205.5t-273.5 -97l-417 -74l-140 1286q-7 0 -49 -53t-49 -53q-22 15 -38.5 85t-47 218t-45.5 180zM614 1352l50 -910 q169 73 225.5 144.5t68.5 118.5q10 22 20.5 109t10.5 194q0 140 -25.5 239.5t-86.5 120.5q-83 29 -132 29q-68 0 -131 -45z" />
<glyph unicode="E" d="M-115 1204l25 475l1212 181l25 -435l-688 -114l16 -312l680 115l25 -360l-688 -131l32 -492l1049 -49l-8 -434l-1459 73l-81 1508z" />
<glyph unicode="F" d="M-115 1204l25 475l1212 181l25 -435l-688 -114l16 -312l516 82l25 -360l-524 -98l57 -902q-36 -5 -121 -13.5t-156 -8.5q-112 0 -166 22l-81 1508z" />
<glyph unicode="G" horiz-adv-x="1229" d="M-84 899q0 148 34.5 284t113 245.5t216.5 178.5t334 72q130 0 256 -30.5t231 -85t180.5 -133t98.5 -168.5l-448 -293q-45 112 -301 112q-58 0 -119 -83t-61 -187q5 -79 47 -151.5t149 -77.5q9 0 31.5 5.5t40 10t35.5 8.5l-74 33l115 262l565 -213l-131 -1106l-508 41 q27 82 76 234.5t63 199.5q-65 -32 -262 -32q-189 0 -332.5 71.5t-235.5 245t-112 469.5q-2 29 -2 88z" />
<glyph unicode="H" d="M-180 1925l688 -57l24 -697h140l-41 656l532 -41l107 -2228l-410 8l-164 1171l-155 41l-9 -1057l-475 -8l-57 1917l-172 41z" />
<glyph unicode="I" d="M-115 1204l25 475l1212 181l25 -435l-418 -82l-74 -884l508 -8l-8 -435h-1204l49 385l279 9l40 868z" />
<glyph unicode="J" horiz-adv-x="1331" d="M-16 608q0 91 24 285l508 123q-2 -58 -4 -100t-2 -66q0 -54 5.5 -94t21.5 -78t45 -72q80 -94 137 -94q38 0 65.5 36t51.5 99q43 110 43 397q0 124 -5 237q-5 112 -19 327.5t-19 333.5l532 -41q20 -129 32.5 -323.5t12.5 -389.5q0 -112 -4 -210q-5 -99 -13.5 -188 t-24 -170.5t-36.5 -144.5q-22 -67 -87 -152.5t-141 -156.5t-132 -105q-119 -67 -291 -67q-130 0 -257.5 41.5t-221.5 120.5q-123 105 -172 207t-49 245z" />
<glyph unicode="K" d="M-131 1425l49 246l508 213v-328l270 287l344 -287l-491 -712l1024 -787l24 -401l-1040 565l25 -491l-476 -9l-90 1737z" />
<glyph unicode="L" d="M-131 1425l49 246l508 213l98 -1753l1049 -49l-8 -434l-1459 73l-90 1737z" />
<glyph unicode="M" horiz-adv-x="1434" d="M8 25l139 1466l492 33l131 -213l115 295l319 8l377 -1753l-582 57l-106 598l-115 -221l-155 278l-50 -507z" />
<glyph unicode="N" d="M-180 1925l606 -41l262 -663l-57 606l622 -25l17 -2244l-369 -25l-377 1065l8 -877l-475 -8l-57 1917l-172 41z" />
<glyph unicode="O" horiz-adv-x="1536" d="M-68 672q0 313 199 540q117 134 246 238t267 163.5t282 59.5q237 0 467 -174q237 -181 237 -483q0 -104 -29.5 -214.5t-82.5 -211.5t-117 -180q-105 -130 -207.5 -219t-206.5 -144.5t-201 -80.5t-190 -25q-216 0 -391 116q-118 80 -195.5 250t-77.5 365zM739 1047 q0 -116 68 -170q82 -66 164 -66q101 0 170 90t69 223q0 62 -14 117q-20 -112 -81 -185t-126 -73q-41 0 -71 31q-16 16 -26.5 48t-10.5 62q0 61 36.5 120.5t116.5 103.5q-96 0 -163.5 -44.5t-99.5 -113.5t-32 -143z" />
<glyph unicode="P" d="M-82 1589q121 40 227.5 74t224.5 64.5t226 48.5q83 14 170 14q145 0 190 -8q68 -13 128.5 -42t108 -77.5t77.5 -114.5q12 -27 12 -57q0 -112 -122.5 -276t-246 -286t-184.5 -175l180 -631l-262 -189l-459 1311q-2 0 -19 -19t-44.5 -49.5t-34.5 -37.5q-3 0 -19.5 43 t-44 119.5t-62 170t-46.5 117.5zM565 1311l82 -295q62 63 154 172t92 158q0 19 -16 22q-45 10 -89 10q-132 0 -223 -67z" />
<glyph unicode="Q" horiz-adv-x="1024" d="M-23 528q0 140 34 291t79 246q67 140 165.5 230.5t206.5 130.5t216 40q81 0 152 -22t112 -60q118 -100 185 -253t67 -328q0 -169 -64 -328q-25 -67 -75 -147q26 -16 85.5 -61t130 -119.5t105.5 -155.5l-286 -213q-18 31 -63 94.5t-116 125.5t-141 62q-140 -73 -285 -73 q-204 0 -370 143q-73 63 -105.5 166.5t-32.5 230.5zM360 598q1 -18 2.5 -44.5t12 -48t36.5 -37.5t72 -26q22 -4 33 -4q76 0 137.5 63.5t96 161.5t34.5 191q0 150 -79 203q-12 8 -27 8q-52 0 -128.5 -81.5t-133 -193t-56.5 -192.5z" />
<glyph unicode="R" horiz-adv-x="1229" d="M-82 1589q121 40 227.5 74t224.5 64.5t225.5 48.5t211.5 18q81 0 149 -12.5t128.5 -41.5t108 -77.5t77.5 -114.5q10 -20 10 -51q0 -49 -29.5 -107.5t-78 -124t-107.5 -135.5q55 -6 105.5 -79.5t74.5 -173.5l172 -885l-303 -66l-221 811q-6 17 -23 51.5t-46 68.5t-62 34 q-7 0 -21 -4q-36 -36 -78 -74.5t-57 -50.5l131 -729l-344 -90l-205 1302q-6 0 -22.5 -18t-44 -51t-31.5 -37q-3 0 -19.5 43t-44 119.5t-62 170t-46.5 117.5zM500 1343l57 -294q66 14 147.5 114t81.5 160q0 31 -24 37q-102 26 -137 26q-65 0 -125 -43z" />
<glyph unicode="S" d="M-197 123q15 31 48.5 122.5t57 158.5t43 118t23.5 51q28 -23 188 -100.5t247 -87.5q32 -3 109 -24t105.5 -28t67.5 -7q46 0 70 18q45 33 45 70q0 82 -209 192q-128 67 -284.5 187.5t-274 279t-117.5 316.5q0 81 37 159q112 238 467 238q187 0 394 -52.5t491 -144.5 q-22 -50 -94 -250t-78 -200q-8 8 -91.5 52.5t-182 86.5t-160.5 49q-28 3 -130.5 31t-152.5 28q-46 0 -70 -18q-41 -29 -41 -68q0 -36 34 -78.5t89 -84.5t122 -82t132 -72q134 -66 232.5 -150.5t153.5 -168.5t80.5 -170.5t25.5 -163.5q0 -91 -33 -166q-61 -129 -179 -187.5 t-282 -58.5q-94 0 -211.5 19.5t-227 49t-231 68t-213.5 68.5z" />
<glyph unicode="T" d="M-197 1294l9 394l1597 106l25 -434l-508 -41l57 -1344h-61q-60 0 -152 4q-92 3 -167 12.5t-111 24.5l-66 1287z" />
<glyph unicode="U" horiz-adv-x="1331" d="M-180 1925l688 -57q-6 -93 -6 -215q0 -183 14.5 -407t36.5 -398t45 -225q51 -115 111 -115q36 0 70 39t57 100q43 110 43 365q0 102 -4 197q-5 94 -12.5 208t-16 240.5t-10.5 169.5l532 -41q20 -130 32.5 -306t12.5 -350q0 -193 -18 -361t-60 -294q-22 -67 -87 -152.5 t-141 -156.5t-132 -105q-119 -67 -291 -67q-130 0 -257.5 41.5t-221.5 120.5q-62 54 -105.5 163.5t-71 263t-39.5 315.5t-12 319q0 239 23 413l-172 41z" />
<glyph unicode="V" horiz-adv-x="1434" d="M-156 1819l607 -41l376 -1188l271 1114l581 -33l-606 -1851l-450 8l-598 1696l-172 41z" />
<glyph unicode="W" horiz-adv-x="1434" d="M-147 1532l581 -57l107 -598l114 221l156 -279l82 926l565 41l-172 -1884l-491 -33l-131 213l-115 -295l-320 -8z" />
<glyph unicode="X" horiz-adv-x="1434" d="M-180 -344l712 1155l-598 999l558 -81l278 -476l270 476l549 24l-581 -977l516 -1030l-566 131l-237 459l-385 -664z" />
<glyph unicode="Y" horiz-adv-x="1434" d="M-156 1819l607 -41l409 -762l238 688l483 -25l-762 -1982l-483 -41l295 844l-574 1048l-204 17z" />
<glyph unicode="Z" horiz-adv-x="1434" d="M-164 1909l1729 90l-803 -1729l794 58l-24 -377l-1573 -90l746 1655l-811 -66z" />
<glyph unicode="[" horiz-adv-x="819" d="M-66 -434l66 2220l926 106l-33 -434l-385 -57l-90 -1352l360 66l-24 -418z" />
<glyph unicode="\" horiz-adv-x="1434" d="M-66 1810l558 -81l1032 -1983l-566 131z" />
<glyph unicode="]" horiz-adv-x="922" d="M-41 1352l57 393l910 123l-82 -1999l-836 -90l41 450q94 10 233 25.5t152 15.5l58 1131z" />
<glyph unicode="^" d="M-41 1450l41 279l524 172l574 -197l24 -279l-598 197z" />
<glyph unicode="_" horiz-adv-x="1229" d="M-98 -98l90 188l1319 -41l-49 -180q-80 0 -290 5q-211 4 -418 10q-208 6 -395 11t-257 7z" />
<glyph unicode="`" d="M131 1450l229 352l533 -295l-115 -180z" />
<glyph unicode="a" horiz-adv-x="1024" d="M-39 520q0 241 139 389q120 126 247.5 191t260.5 65q37 0 56 -2l8 -8l418 188l8 -559q8 -52 8 -118q0 -58 -4 -86l12 -613l-450 -24v61q-110 -45 -222 -45q-86 0 -161.5 26t-130.5 70q-89 74 -139 199.5t-50 265.5zM383 705q0 -91 86 -148q76 -51 154 -51q15 0 41 4v213 q-27 0 -48 14q-30 24 -30 92q0 98 78 150q-55 -7 -108.5 -35t-91.5 -66t-59.5 -83.5t-21.5 -89.5z" />
<glyph unicode="b" horiz-adv-x="1075" d="M-131 1425l49 246l508 213l8 -706q113 47 219 47q147 0 303 -84q104 -56 152.5 -167.5t48.5 -248.5q0 -72 -11.5 -138.5t-31.5 -122.5t-47 -95q-84 -124 -181.5 -203t-196.5 -114.5t-197 -35.5q-10 1 -18.5 1.5t-22.5 0.5v-34l-451 -25l16 1499zM440 817l2 -106 q17 -58 76 -97q82 -51 152 -51q71 0 126 47.5t84 122t29 148.5q0 48 -12 92q-18 -77 -74 -135t-110 -58q-28 0 -47 15q-31 22 -31 84q0 47 29.5 91t97.5 70q-76 0 -144 -31t-114.5 -82.5t-63.5 -109.5z" />
<glyph unicode="c" horiz-adv-x="1024" d="M-86 479q0 104 29 205t71 184q55 108 121 184.5t138.5 125t148.5 71.5t153 23q158 0 291 -84q64 -41 115.5 -113.5t79.5 -134t37 -88.5l-371 -82q-9 50 -53 66t-92 16q-254 -24 -254 -303q7 -221 139 -246q63 0 114 31t87.5 82.5t60.5 115.5l371 -75q-6 -20 -29 -80 q-26 -67 -121.5 -179t-212.5 -157q-141 -55 -280 -55q-222 0 -394 145q-78 68 -113.5 158t-35.5 190z" />
<glyph unicode="d" horiz-adv-x="1024" d="M-39 520q0 241 139 389q120 126 247.5 191t260.5 65q37 0 56 -2l-9 787l418 188l25 -1354q8 -52 8 -118q0 -58 -4 -86l12 -613l-450 -24v61q-110 -45 -222 -45q-86 0 -161.5 26t-130.5 70q-89 74 -139 199.5t-50 265.5zM383 705q0 -91 86 -148q76 -51 154 -51q15 0 41 4 v213q-27 0 -48 14q-30 24 -30 92q0 98 78 150q-55 -7 -108.5 -35t-91.5 -66t-59.5 -83.5t-21.5 -89.5z" />
<glyph unicode="e" horiz-adv-x="1024" d="M-23 410q0 150 54.5 295.5t115.5 203.5q73 69 158.5 115t177.5 69t189 23q127 0 241.5 -40.5t200.5 -117.5l-549 -655q73 0 138.5 30.5t120.5 87t98 132.5l241 -291q-29 -84 -137.5 -154t-258 -110.5t-298.5 -40.5q-132 0 -235.5 35t-159.5 106q-97 122 -97 312zM307 561 q0 -35 7 -67t24 -88l307 380q-49 25 -100 25q-54 0 -104.5 -22t-71.5 -52q-62 -80 -62 -176z" />
<glyph unicode="f" d="M-190 1196l309 -33q-6 75 -6 109q0 166 93 314t355 224q139 43 289 43q145 0 235 -43q91 -40 135.5 -89t69.5 -156l-352 -230q-25 65 -69.5 113.5t-90.5 48.5q-66 0 -110 -104q-6 -11 -11 -48t-11.5 -102t-10.5 -104h264v-385l-289 -9q-2 -75 -2 -241q0 -97 3 -249 q2 -152 7 -277q4 -126 9 -183l-492 -57q-5 48 -12 189t-11 261t-6 230t-4 319h-235z" />
<glyph unicode="g" horiz-adv-x="1024" d="M-39 520q0 241 139 389q241 256 508 256q85 0 158 -22l307 151l25 -1278v-112q0 -192 -17.5 -358.5t-72.5 -233.5q-79 -98 -198.5 -167t-277.5 -69q-101 0 -221 39q-117 39 -183.5 101.5t-94 137.5t-27.5 159q0 109 31.5 200.5t52.5 130.5l328 -213q-4 -24 -4 -34 q0 -61 43.5 -96.5t103.5 -35.5q53 0 93.5 30.5t50.5 86.5q12 67 12 172q0 129 -19 266q-125 -61 -256 -61q-86 0 -161.5 26t-130.5 70q-89 74 -139 199.5t-50 265.5zM391 705q0 -93 86 -148q51 -33 141 -33q59 0 115 15l-4 215q-64 0 -86 19t-22 56q0 41 15.5 84.5 t25.5 63.5q-75 -13 -136.5 -55t-98 -101t-36.5 -116z" />
<glyph unicode="h" horiz-adv-x="1229" d="M-25 1892l410 50l66 -787q179 59 309 59q119 0 207 -51q53 -31 119 -93.5t116.5 -137.5t67.5 -146q53 -213 53 -372q0 -84 -11 -176.5t-34 -237.5l-418 -25q2 50 2 144q0 392 -108 667q-42 103 -82 103q-52 0 -115 -144q-15 -35 -24.5 -80t-14 -101t-4.5 -132 q0 -154 18 -391l-491 -57q-8 58 -10 136q-3 78 -4 161q-2 83 -6.5 151.5t-18.5 155.5z" />
<glyph unicode="i" horiz-adv-x="512" d="M-82 827l49 246l508 213l66 -1474l-451 -25l-24 1073zM41 1651q0 85 41.5 159t130.5 82q71 0 122.5 -23.5t84.5 -57t45 -58.5q12 -27 12 -59q0 -49 -21 -99.5t-51 -86.5t-57 -42q-52 -8 -78 -8q-66 0 -115 23t-78 67t-36 103z" />
<glyph unicode="j" horiz-adv-x="1024" d="M6 -487q0 109 31.5 200.5t52.5 130.5l328 -213q-4 -24 -4 -34q0 -61 43.5 -96.5t103.5 -35.5q53 0 93.5 30.5t50.5 86.5q12 67 12 172q0 129 -19 266l-43 840l-147 -33l49 246l508 213l33 -1270v-112q0 -192 -17.5 -358.5t-72.5 -233.5q-79 -98 -198.5 -167t-277.5 -69 q-101 0 -221 39q-117 39 -183.5 101.5t-94 137.5t-27.5 159zM590 1659q0 85 42 159.5t130 82.5q97 0 164 -46.5t88 -93.5q12 -27 12 -59q0 -49 -21 -98.5t-51.5 -87t-56.5 -41.5q-49 -9 -78 -9q-66 0 -115 23t-78 67t-36 103z" />
<glyph unicode="k" d="M-131 1425l49 246l508 213l74 -1155l418 229l434 -65l-566 -434l533 -402l24 -401l-786 565l25 -491l-476 -9l-90 1737z" />
<glyph unicode="l" horiz-adv-x="512" d="M-131 1425l49 246l508 213l131 -2138l-451 -25l-90 1737z" />
<glyph unicode="m" horiz-adv-x="1741" d="M-16 1171l393 50l57 -66q158 51 258 51q111 0 213 -59q259 82 385 82q100 0 172 -41q89 -51 192 -174t128 -228q53 -213 53 -372q0 -84 -11 -176.5t-34 -237.5l-418 -25q2 50 2 144q0 392 -108 667q-20 49 -47 77t-48 28q-22 0 -22 -31q0 -18 4 -31q7 -16 14 -43 q54 -217 54 -372q0 -76 -10 -159.5t-35 -254.5l-418 -25q2 50 2 144q0 393 -109 667q-13 32 -20 67.5t-10 35.5q-4 0 -23 -47t-41 -97q-15 -35 -24.5 -80t-14 -101t-4.5 -132q0 -154 18 -391l-491 -57q-12 88 -22 175t-15.5 161.5t-5.5 160.5q0 37 4 107z" />
<glyph unicode="n" horiz-adv-x="1229" d="M-16 1171l393 50l57 -66q111 37 191 56.5t153 19.5q98 0 172 -43q89 -51 192 -174t128 -228q53 -213 53 -372q0 -84 -11 -176.5t-34 -237.5l-418 -25q2 50 2 144q0 392 -108 667q-42 103 -82 103q-52 0 -115 -144q-15 -35 -24.5 -80t-14 -101t-4.5 -132q0 -154 18 -391 l-491 -57q-12 88 -22 175t-15.5 161.5t-5.5 160.5q0 37 4 107z" />
<glyph unicode="o" horiz-adv-x="1024" d="M-39 520q0 241 139 389q119 127 246 191.5t260 64.5q78 0 150 -19.5t151 -62.5q71 -38 115.5 -102.5t65 -145t20.5 -167.5q0 -72 -11.5 -139t-31.5 -123t-47 -95q-63 -94 -135 -162t-147 -109.5t-148.5 -61t-145.5 -19.5q-85 0 -161.5 26.5t-130.5 69.5 q-89 74 -139 199.5t-50 265.5zM383 705q0 -93 86 -148q80 -51 152 -51q71 0 126 47.5t84 122t29 147.5q0 50 -12 92q-17 -76 -73.5 -134t-110.5 -58q-27 0 -48 14q-30 24 -30 84q0 46 30.5 91t96.5 71q-66 0 -127.5 -25t-105.5 -64.5t-70.5 -89t-26.5 -99.5z" />
<glyph unicode="p" horiz-adv-x="1024" d="M-205 836l49 245l508 213l13 -184q119 57 241 57q148 0 301 -84q71 -38 115.5 -102.5t65 -145t20.5 -167.5q0 -72 -11.5 -139t-31.5 -123t-47 -95q-84 -126 -183 -204t-199 -112t-202 -34l49 -805l-450 -24l-68 1298v10q-4 50 -4 74l-18 354zM387 741q0 -56 25.5 -109.5 t56.5 -74.5q80 -51 152 -51q71 0 126 47.5t84 122t29 147.5q0 50 -12 92q-17 -76 -73.5 -134t-110.5 -58q-27 0 -48 14q-30 24 -30 84q0 46 30.5 91t96.5 71q-81 0 -150 -34.5t-116.5 -91.5t-59.5 -116z" />
<glyph unicode="q" horiz-adv-x="1024" d="M-39 520q0 241 139 389q241 256 508 256q85 0 158 -22l299 127l57 -2155l-377 -8l-47 913q-125 -61 -256 -61q-86 0 -161.5 26t-130.5 70q-89 74 -139 199.5t-50 265.5zM391 705q0 -93 86 -148q51 -33 141 -33q59 0 115 15l-4 215q-64 0 -86 19t-22 56q0 41 15.5 84.5 t25.5 63.5q-75 -13 -136.5 -55t-98 -101t-36.5 -116z" />
<glyph unicode="r" d="M-16 1229l393 49l57 -66q70 24 129.5 41t111.5 27t101 10q99 0 174 -45q95 -53 150.5 -110t79.5 -160l-353 -230q-26 67 -69.5 114.5t-89.5 47.5q-66 0 -111 -104q-43 -100 -43 -350q0 -175 18 -412l-491 -57q-43 309 -43 551q0 40 4 110z" />
<glyph unicode="s" d="M-156 123q26 54 66 130.5t77.5 149.5t37.5 80q29 -27 72.5 -43.5t127 -39t127.5 -40.5q97 -36 201 -36q64 0 122 13.5t62 22.5q0 26 -88.5 51.5t-197.5 39.5q-124 14 -249.5 60.5t-213.5 136.5t-88 222q0 101 51 211q56 123 168 178.5t268 55.5q180 0 371 -51t520 -158 q-7 -15 -55 -127.5t-72 -164.5t-29 -52q-30 11 -145.5 46.5t-206 61.5t-199.5 50t-170 24q-32 0 -49 -10q-49 -37 -49 -68q0 -49 98 -84.5t238 -52.5q192 -21 310.5 -90t171.5 -160.5t53 -187.5q0 -68 -27 -127q-116 -246 -445 -246q-90 0 -203 19.5t-216.5 48t-220.5 66.5 t-218 71z" />
<glyph unicode="t" horiz-adv-x="1280" d="M-162 1319l373 -25l-23 459l437 197l-7 -672l326 -8v-385l-338 -4q-18 -142 -18 -267q0 -104 12 -172q10 -56 50 -86t93 -30q59 0 103.5 35t44.5 96q0 9 -4 35l327 213q21 -39 52.5 -131t31.5 -201q0 -131 -69 -237t-236 -161q-117 -38 -221 -38q-157 0 -276.5 69 t-198.5 166q-37 45 -57.5 149t-26.5 217t-6 226v113l-295 -9z" />
<glyph unicode="u" horiz-adv-x="1229" d="M0 748q0 86 5.5 166t14.5 163.5t21 167.5l491 -57q-18 -237 -18 -391q0 -77 4.5 -133t14.5 -102t24 -79q63 -143 115 -143q40 0 82 102q28 71 50 139.5t34 130.5t18 136t6 162t-2 137l418 -25q33 -207 39 -249.5t6 -106.5q0 -109 -53 -324q-26 -109 -115 -229t-172 -168 q-130 -74 -303 -74q-120 0 -233.5 34t-208.5 101q-89 62 -142.5 162t-74.5 218t-21 262z" />
<glyph unicode="v" horiz-adv-x="1434" d="M-106 1253l548 -24l238 -631l238 614l507 -49l-516 -1302l-475 16z" />
<glyph unicode="w" horiz-adv-x="2048" d="M-106 1253l548 -24l238 -631l141 381l-108 274l549 -24l237 -631l238 614l508 -49l-516 -1302l-476 16l-163 434l-189 -426l-467 -8z" />
<glyph unicode="x" horiz-adv-x="1434" d="M-106 1253l548 -24l275 -363l274 363l549 24l-565 -731l500 -661l-517 16l-241 313l-242 -313l-516 -16l500 661z" />
<glyph unicode="y" horiz-adv-x="1331" d="M-82 975l401 188l402 -745l246 688l442 -172l-745 -1802l-394 147l230 623z" />
<glyph unicode="z" horiz-adv-x="1434" d="M-57 1262l1597 -9l-811 -1015h770l-24 -377h-1516l737 950l-696 -8z" />
<glyph unicode="{" horiz-adv-x="819" d="M8 754q0 28 4 82q22 226 137.5 414t266 322t289 214.5t204.5 97.5l-57 -409q-42 -30 -131 -110.5t-188.5 -224.5t-126.5 -311q-9 -50 -9 -90q0 -150 90.5 -307.5t290.5 -316.5l-49 -475q-201 144 -340.5 290t-223 289t-120.5 277.5t-37 257.5z" />
<glyph unicode="|" horiz-adv-x="614" d="M0 -680l41 2630l549 131l-25 -2671z" />
<glyph unicode="}" horiz-adv-x="819" d="M-90 1884q67 -16 205.5 -97.5t289 -215t266 -322.5t136.5 -413q4 -54 4 -82q0 -128 -36 -259.5t-120 -275t-223.5 -289.5t-341.5 -290l-49 475q201 158 291 315t90 309q0 34 -8 90q-28 168 -127.5 311.5t-188.5 224t-131 110.5z" />
<glyph unicode="~" d="M-16 1524l24 229q42 26 132 65.5t188 39.5q108 0 172 -72q65 -76 188 -76q77 0 155.5 28t129.5 71t51 83l49 -352q-67 -22 -201 -56t-233 -34q-87 0 -115 33q-38 48 -112.5 71t-163.5 23q-146 0 -264 -53z" />
<glyph unicode="&#xa1;" horiz-adv-x="410" d="M-57 -98l123 1253l344 33l131 -1106zM-2 1665q0 49 21 98.5t51.5 87t56.5 41.5q61 9 78 9q99 0 158.5 -51t70.5 -142q0 -85 -40.5 -159t-131.5 -83q-97 0 -162.5 45.5t-89.5 94.5q-12 27 -12 59z" />
<glyph unicode="&#xa2;" horiz-adv-x="1229" d="M-84 899q0 180 51 339.5t174 276t326 152.5l8 209q361 0 361 -8l-9 -230q140 -25 255.5 -75.5t193.5 -127t104 -173.5l-448 -293q-45 112 -301 112q-58 0 -119 -83t-61 -187q5 -79 47 -151.5t149 -77.5q80 0 168 43t152 172q4 -8 83 -75t161.5 -134t121.5 -99 q-54 -130 -136 -221t-177.5 -142.5t-200.5 -76.5l-8 -172h-369l9 164q-121 13 -212 58.5t-157.5 133.5t-107.5 228t-56 350q-2 29 -2 88z" />
<glyph unicode="&#xa3;" d="M-190 1196l309 -33q-6 75 -6 109q0 166 93 314t355 224q139 43 289 43q145 0 235 -43q91 -40 135.5 -89t69.5 -156l-352 -230q-25 65 -69.5 113.5t-90.5 48.5q-66 0 -110 -104q-6 -11 -11 -48t-11.5 -102t-10.5 -104h264v-385l-289 -9q-1 -75 -4 -153q-4 -79 -10 -167.5 t-8 -126.5t-2 -89q0 -33 4 -103l983 -24l-8 -434l-1459 73q-6 46 -6 289q1 153 2 284v347v96h-235z" />
<glyph unicode="&#xa5;" horiz-adv-x="1434" d="M-156 1819l607 -41l409 -762l238 688l483 -25l-295 -766l213 5l-41 -287l-254 8l-88 -215l309 2l-65 -262l-354 -12l-187 -455l-483 -41l176 506l-340 -6l33 270l403 10l23 64l-33 114l-393 33l-8 279l204 -8l-344 630l-204 17z" />
<glyph unicode="&#xa6;" horiz-adv-x="614" d="M0 -680v1434l565 41v-1385zM27 991l14 959l549 131l-10 -1065z" />
<glyph unicode="&#xa8;" horiz-adv-x="1024" d="M-33 1638q0 64 30.5 159t133.5 95q111 -5 186.5 -64t75.5 -145q0 -28 -8 -53q-29 -108 -87.5 -168.5t-141.5 -60.5q-75 7 -132 71t-57 166zM631 1663q0 64 30.5 159t133.5 95q111 -5 186.5 -64t75.5 -145q0 -29 -8 -53q-28 -106 -87.5 -168t-142.5 -62q-50 5 -92.5 35 t-69 83t-26.5 120z" />
<glyph unicode="&#xab;" horiz-adv-x="1946" d="M8 1073l1204 475l-41 -344l-516 -155l475 -164l-49 -353zM930 1073l1204 475l-41 -344l-516 -155l475 -164l-49 -353z" />
<glyph unicode="&#xad;" horiz-adv-x="717" d="M-8 795l24 270l762 82l-33 -328z" />
<glyph unicode="&#xb1;" horiz-adv-x="922" d="M-33 156l33 221l950 57l-16 -237zM-8 795l24 270l336 31l25 313h319l-32 -287l311 33l-33 -328l-336 -10l-41 -334h-311l41 324z" />
<glyph unicode="&#xb4;" d="M131 1507l533 295l229 -352l-647 -123z" />
<glyph unicode="&#xb5;" horiz-adv-x="1229" d="M-57 -590l75 1090q4 61 6 156q1 95 1 223q0 238 16 366l491 -57q-18 -237 -18 -391q0 -77 4.5 -133t14.5 -102t24 -79q63 -143 115 -143q40 0 82 102q28 71 50 139.5t34 130.5t18 136t6 162t-2 137l418 -25q33 -207 39 -249.5t6 -106.5q0 -109 -53 -324 q-26 -109 -115 -229t-172 -168q-79 -46 -174.5 -64t-206.5 -18q-49 0 -143 4l-33 -565z" />
<glyph unicode="&#xb7;" horiz-adv-x="410" d="M-8 987q0 86 41.5 160t130.5 82q71 0 122.5 -23.5t84.5 -57t45 -58.5q12 -28 12 -60q0 -49 -21 -98.5t-51.5 -87t-56.5 -41.5q-54 -8 -78 -8q-99 0 -158.5 51.5t-70.5 140.5z" />
<glyph unicode="&#xb8;" horiz-adv-x="1229" d="M262 -270q77 6 193 41t116 123q0 59 -79 137l-123 116q39 2 102.5 5.5t156.5 10t93 9.5l123 -117q186 -135 186 -260q0 -94 -91.5 -164.5t-185 -106.5t-139.5 -48z" />
<glyph unicode="&#xbb;" horiz-adv-x="1946" d="M-86 1548l1204 -475l-1073 -541l-49 353l475 164l-516 155zM836 1548l1204 -475l-1073 -541l-49 353l475 164l-516 155z" />
<glyph unicode="&#xbf;" d="M-133 266q0 93 95.5 236t241 288.5t289.5 252t234 133.5l104 -302q-93 -1 -195.5 -57t-186.5 -134t-138.5 -153.5t-54.5 -113.5q0 -20 14 -23q25 -6 56 -6q55 0 166 22.5t131 24.5q66 9 159 48.5t180 86t95 54.5q6 0 80 -205.5t92 -245.5q-77 -25 -210.5 -67.5 t-240 -70.5t-225 -47.5t-213.5 -19.5q-165 0 -283.5 58.5t-179.5 187.5q-10 20 -10 53zM309 1559q0 49 21 98.5t51.5 87t56.5 41.5q54 8 78 8q99 0 158.5 -51t70.5 -141q0 -55 -16.5 -107.5t-55.5 -90.5t-100 -44q-97 0 -163.5 46.5t-87.5 92.5q-13 27 -13 60z" />
<glyph unicode="&#xc0;" d="M-451 -328l1090 2171l983 -2367l-418 -41l-467 1089l-262 41l-409 -868zM229 2032l230 352l532 -295l-114 -180zM492 803l237 -33l-98 385z" />
<glyph unicode="&#xc1;" d="M-451 -328l1090 2171l983 -2367l-418 -41l-467 1089l-262 41l-409 -868zM238 2114l532 294l229 -352l-647 -123zM492 803l237 -33l-98 385z" />
<glyph unicode="&#xc2;" d="M-451 -328l1090 2171l983 -2367l-418 -41l-467 1089l-262 41l-409 -868zM57 1925l41 279l525 172l573 -197l25 -278l-598 196zM492 803l237 -33l-98 385z" />
<glyph unicode="&#xc3;" d="M-451 -328l1090 2171l983 -2367l-418 -41l-467 1089l-262 41l-409 -868zM33 2097l24 230q42 26 133 65t187 39q109 0 172 -72q64 -75 188 -75q77 0 155.5 28t129.5 71t51 83l49 -352q-67 -23 -201 -57t-233 -34q-86 0 -115 33q-76 94 -276 94q-150 0 -264 -53zM492 803 l237 -33l-98 385z" />
<glyph unicode="&#xc4;" d="M-451 -328l1090 2171l983 -2367l-418 -41l-467 1089l-262 41l-409 -868zM98 2179q0 64 30.5 159t133.5 95q112 -5 187 -63t75 -146q0 -29 -8 -53q-29 -108 -87.5 -168.5t-141.5 -60.5q-48 5 -91 34t-70.5 82.5t-27.5 120.5zM492 803l237 -33l-98 385zM762 2204 q0 64 30.5 159t133.5 95q70 -3 130.5 -31t96 -74t35.5 -104q0 -29 -8 -54q-29 -108 -88 -168.5t-142 -60.5q-74 6 -131 71t-57 167z" />
<glyph unicode="&#xc5;" d="M-451 -328l1090 2171l983 -2367l-418 -41l-467 1089l-262 41l-409 -868zM401 2220q0 64 30.5 159t133.5 95q112 -5 187 -63t75 -146q0 -29 -8 -53q-29 -107 -87.5 -168.5t-141.5 -61.5q-49 5 -91.5 34.5t-70 83t-27.5 120.5zM492 803l237 -33l-98 385z" />
<glyph unicode="&#xc6;" horiz-adv-x="1843" d="M-451 -328l1090 2171l1188 131l24 -434l-778 -131l33 -319l754 139l24 -361l-721 -147l66 -475l1048 -49l-8 -435l-1401 115l-90 639l-303 49l-409 -868zM492 803l237 -33l-98 385z" />
<glyph unicode="&#xc7;" horiz-adv-x="1229" d="M-84 899q0 148 34.5 284t113 245.5t216.5 178.5t334 72q130 0 256 -30.5t231 -85t180.5 -133t98.5 -168.5l-448 -293q-45 112 -301 112q-58 0 -119 -83t-61 -187q5 -79 47 -151.5t149 -77.5q80 0 168 43t152 172q4 -8 83 -75t161.5 -134t121.5 -99q-141 -341 -489 -434 q186 -135 186 -260q0 -94 -91.5 -164.5t-185 -106.5t-139.5 -48l-352 254q77 6 193 41t116 123q0 59 -79 137q-160 19 -281.5 100t-198.5 247.5t-94 432.5q-2 29 -2 88z" />
<glyph unicode="&#xc8;" d="M-115 1204l25 475l1212 181l25 -435l-688 -114l16 -312l680 115l25 -360l-688 -131l32 -492l1049 -49l-8 -434l-1459 73l-81 1508zM229 2032l230 352l532 -295l-114 -180z" />
<glyph unicode="&#xc9;" d="M-115 1204l25 475l1212 181l25 -435l-688 -114l16 -312l680 115l25 -360l-688 -131l32 -492l1049 -49l-8 -434l-1459 73l-81 1508zM238 2114l532 294l229 -352l-647 -123z" />
<glyph unicode="&#xca;" d="M-115 1204l25 475l1212 181l25 -435l-688 -114l16 -312l680 115l25 -360l-688 -131l32 -492l1049 -49l-8 -434l-1459 73l-81 1508zM57 1925l41 279l525 172l573 -197l25 -278l-598 196z" />
<glyph unicode="&#xcb;" d="M-115 1204l25 475l1212 181l25 -435l-688 -114l16 -312l680 115l25 -360l-688 -131l32 -492l1049 -49l-8 -434l-1459 73l-81 1508zM98 2179q0 64 30.5 159t133.5 95q112 -5 187 -63t75 -146q0 -29 -8 -53q-29 -108 -87.5 -168.5t-141.5 -60.5q-48 5 -91 34t-70.5 82.5 t-27.5 120.5zM762 2204q0 64 30.5 159t133.5 95q70 -3 130.5 -31t96 -74t35.5 -104q0 -29 -8 -54q-29 -108 -88 -168.5t-142 -60.5q-74 6 -131 71t-57 167z" />
<glyph unicode="&#xcc;" d="M-115 1204l25 475l1212 181l25 -435l-418 -82l-74 -884l508 -8l-8 -435h-1204l49 385l279 9l40 868zM229 2032l230 352l532 -295l-114 -180z" />
<glyph unicode="&#xcd;" d="M-115 1204l25 475l1212 181l25 -435l-418 -82l-74 -884l508 -8l-8 -435h-1204l49 385l279 9l40 868zM238 2114l532 294l229 -352l-647 -123z" />
<glyph unicode="&#xce;" d="M-115 1204l25 475l1212 181l25 -435l-418 -82l-74 -884l508 -8l-8 -435h-1204l49 385l279 9l40 868zM57 1925l41 279l525 172l573 -197l25 -278l-598 196z" />
<glyph unicode="&#xcf;" d="M-115 1204l25 475l1212 181l25 -435l-418 -82l-74 -884l508 -8l-8 -435h-1204l49 385l279 9l40 868zM98 2179q0 64 30.5 159t133.5 95q112 -5 187 -63t75 -146q0 -29 -8 -53q-29 -108 -87.5 -168.5t-141.5 -60.5q-48 5 -91 34t-70.5 82.5t-27.5 120.5zM762 2204 q0 64 30.5 159t133.5 95q70 -3 130.5 -31t96 -74t35.5 -104q0 -29 -8 -54q-29 -108 -88 -168.5t-142 -60.5q-74 6 -131 71t-57 167z" />
<glyph unicode="&#xd0;" horiz-adv-x="1331" d="M-41 1622q231 75 435 121.5t380 46.5q378 0 496 -242q47 -94 78.5 -194.5t46 -200.5t14.5 -197q0 -174 -46.5 -334t-133.5 -286.5t-210.5 -205.5t-273.5 -97l-417 -74l-70 639h-192l-25 426h172l-25 221q-7 0 -49 -53t-49 -53q-22 15 -38.5 85t-47 218t-45.5 180z M614 1352l19 -336h178l8 -418h-164l9 -156q169 73 225.5 144.5t68.5 118.5q10 22 20.5 109t10.5 194q0 140 -25.5 239.5t-86.5 120.5q-83 29 -132 29q-68 0 -131 -45z" />
<glyph unicode="&#xd1;" d="M-180 1925l606 -41l262 -663l-57 606l622 -25l17 -2244l-369 -25l-377 1065l8 -877l-475 -8l-57 1917l-172 41zM33 2097l24 230q42 26 133 65t187 39q109 0 172 -72q64 -75 188 -75q77 0 155.5 28t129.5 71t51 83l49 -352q-67 -23 -201 -57t-233 -34q-86 0 -115 33 q-76 94 -276 94q-150 0 -264 -53z" />
<glyph unicode="&#xd2;" horiz-adv-x="1536" d="M-68 672q0 313 199 540q117 134 246 238t267 163.5t282 59.5q237 0 467 -174q237 -181 237 -483q0 -104 -29.5 -214.5t-82.5 -211.5t-117 -180q-105 -130 -207.5 -219t-206.5 -144.5t-201 -80.5t-190 -25q-216 0 -391 116q-118 80 -195.5 250t-77.5 365zM229 2032 l230 352l532 -295l-114 -180zM739 1047q0 -116 68 -170q82 -66 164 -66q101 0 170 90t69 223q0 62 -14 117q-20 -112 -81 -185t-126 -73q-41 0 -71 31q-16 16 -26.5 48t-10.5 62q0 61 36.5 120.5t116.5 103.5q-96 0 -163.5 -44.5t-99.5 -113.5t-32 -143z" />
<glyph unicode="&#xd3;" horiz-adv-x="1536" d="M-68 672q0 313 199 540q117 134 246 238t267 163.5t282 59.5q237 0 467 -174q237 -181 237 -483q0 -104 -29.5 -214.5t-82.5 -211.5t-117 -180q-105 -130 -207.5 -219t-206.5 -144.5t-201 -80.5t-190 -25q-216 0 -391 116q-118 80 -195.5 250t-77.5 365zM582 2130 l532 295l229 -352l-647 -123zM739 1047q0 -116 68 -170q82 -66 164 -66q101 0 170 90t69 223q0 62 -14 117q-20 -112 -81 -185t-126 -73q-41 0 -71 31q-16 16 -26.5 48t-10.5 62q0 61 36.5 120.5t116.5 103.5q-96 0 -163.5 -44.5t-99.5 -113.5t-32 -143z" />
<glyph unicode="&#xd4;" horiz-adv-x="1536" d="M-68 672q0 313 199 540q117 134 246 238t267 163.5t282 59.5q237 0 467 -174q237 -181 237 -483q0 -104 -29.5 -214.5t-82.5 -211.5t-117 -180q-105 -130 -207.5 -219t-206.5 -144.5t-201 -80.5t-190 -25q-216 0 -391 116q-118 80 -195.5 250t-77.5 365zM238 1933l41 279 l524 172l573 -197l25 -278l-598 196zM739 1047q0 -116 68 -170q82 -66 164 -66q101 0 170 90t69 223q0 62 -14 117q-20 -112 -81 -185t-126 -73q-41 0 -71 31q-16 16 -26.5 48t-10.5 62q0 61 36.5 120.5t116.5 103.5q-96 0 -163.5 -44.5t-99.5 -113.5t-32 -143z" />
<glyph unicode="&#xd5;" horiz-adv-x="1536" d="M-68 672q0 313 199 540q117 134 246 238t267 163.5t282 59.5q237 0 467 -174q237 -181 237 -483q0 -104 -29.5 -214.5t-82.5 -211.5t-117 -180q-105 -130 -207.5 -219t-206.5 -144.5t-201 -80.5t-190 -25q-216 0 -391 116q-118 80 -195.5 250t-77.5 365zM303 2105l25 230 q42 26 133 65t186 39q109 0 172 -72q64 -75 189 -75q76 0 154.5 28t129.5 71t51 83l50 -352q-68 -22 -202 -56t-233 -34q-87 0 -114 32q-78 95 -277 95q-72 0 -142 -14.5t-122 -39.5zM739 1047q0 -116 68 -170q82 -66 164 -66q101 0 170 90t69 223q0 62 -14 117 q-20 -112 -81 -185t-126 -73q-41 0 -71 31q-16 16 -26.5 48t-10.5 62q0 61 36.5 120.5t116.5 103.5q-96 0 -163.5 -44.5t-99.5 -113.5t-32 -143z" />
<glyph unicode="&#xd6;" horiz-adv-x="1536" d="M-68 672q0 313 199 540q117 134 246 238t267 163.5t282 59.5q237 0 467 -174q237 -181 237 -483q0 -104 -29.5 -214.5t-82.5 -211.5t-117 -180q-105 -130 -207.5 -219t-206.5 -144.5t-201 -80.5t-190 -25q-216 0 -391 116q-118 80 -195.5 250t-77.5 365zM262 2179 q0 64 30.5 159t133.5 95q111 -5 186.5 -64t75.5 -145q0 -29 -8 -53q-29 -108 -87.5 -168.5t-141.5 -60.5q-75 7 -132 71t-57 166zM739 1047q0 -116 68 -170q82 -66 164 -66q101 0 170 90t69 223q0 62 -14 117q-20 -112 -81 -185t-126 -73q-41 0 -71 31q-16 16 -26.5 48 t-10.5 62q0 61 36.5 120.5t116.5 103.5q-96 0 -163.5 -44.5t-99.5 -113.5t-32 -143zM926 2204q0 64 30.5 159t133.5 95q70 -3 130.5 -31t96 -74t35.5 -104q0 -30 -9 -54q-30 -109 -88 -169t-141 -60q-74 6 -131 71t-57 167z" />
<glyph unicode="&#xd7;" horiz-adv-x="1024" d="M-25 1245l279 254q34 -33 127 -120t141 -131t51 -44l345 279l237 -180l-336 -271l328 -237l-385 -189l-230 172l-311 -164l-205 254l254 156z" />
<glyph unicode="&#xd8;" horiz-adv-x="1536" d="M-156 82l183 188q-93 184 -93 402q0 148 47 285.5t150 254.5q117 134 246 238t267 163.5t282 59.5q138 0 278 -61q39 42 92.5 99t71.5 75l303 -221l-155 -191q114 -152 114 -358q0 -82 -17 -162t-47.5 -158t-74 -152.5t-90.5 -133.5q-201 -249 -406 -359t-399 -110 q-160 0 -301 67l-180 -155zM739 1047q0 -116 68 -170q82 -66 164 -66q101 0 170 90t69 223q0 62 -14 117q-20 -112 -81 -185t-126 -73q-41 0 -71 31q-16 16 -26.5 48t-10.5 62q0 61 36.5 120.5t116.5 103.5q-96 0 -163.5 -44.5t-99.5 -113.5t-32 -143z" />
<glyph unicode="&#xd9;" horiz-adv-x="1331" d="M-180 1925l688 -57q-6 -93 -6 -215q0 -183 14.5 -407t36.5 -398t45 -225q51 -115 111 -115q36 0 70 39t57 100q43 110 43 365q0 102 -4 197q-5 94 -12.5 208t-16 240.5t-10.5 169.5l532 -41q20 -130 32.5 -306t12.5 -350q0 -193 -18 -361t-60 -294q-22 -67 -87 -152.5 t-141 -156.5t-132 -105q-119 -67 -291 -67q-130 0 -257.5 41.5t-221.5 120.5q-62 54 -105.5 163.5t-71 263t-39.5 315.5t-12 319q0 239 23 413l-172 41zM229 2032l230 352l532 -295l-114 -180z" />
<glyph unicode="&#xda;" horiz-adv-x="1331" d="M-180 1925l688 -57q-6 -93 -6 -215q0 -183 14.5 -407t36.5 -398t45 -225q51 -115 111 -115q36 0 70 39t57 100q43 110 43 365q0 102 -4 197q-5 94 -12.5 208t-16 240.5t-10.5 169.5l532 -41q20 -130 32.5 -306t12.5 -350q0 -193 -18 -361t-60 -294q-22 -67 -87 -152.5 t-141 -156.5t-132 -105q-119 -67 -291 -67q-130 0 -257.5 41.5t-221.5 120.5q-62 54 -105.5 163.5t-71 263t-39.5 315.5t-12 319q0 239 23 413l-172 41zM238 2114l532 294l229 -352l-647 -123z" />
<glyph unicode="&#xdb;" horiz-adv-x="1331" d="M-180 1925l688 -57q-6 -93 -6 -215q0 -183 14.5 -407t36.5 -398t45 -225q51 -115 111 -115q36 0 70 39t57 100q43 110 43 365q0 102 -4 197q-5 94 -12.5 208t-16 240.5t-10.5 169.5l532 -41q20 -130 32.5 -306t12.5 -350q0 -193 -18 -361t-60 -294q-22 -67 -87 -152.5 t-141 -156.5t-132 -105q-119 -67 -291 -67q-130 0 -257.5 41.5t-221.5 120.5q-62 54 -105.5 163.5t-71 263t-39.5 315.5t-12 319q0 239 23 413l-172 41zM57 1925l41 279l525 172l573 -197l25 -278l-598 196z" />
<glyph unicode="&#xdc;" horiz-adv-x="1331" d="M-180 1925l688 -57q-6 -93 -6 -215q0 -183 14.5 -407t36.5 -398t45 -225q51 -115 111 -115q36 0 70 39t57 100q43 110 43 365q0 102 -4 197q-5 94 -12.5 208t-16 240.5t-10.5 169.5l532 -41q20 -130 32.5 -306t12.5 -350q0 -193 -18 -361t-60 -294q-22 -67 -87 -152.5 t-141 -156.5t-132 -105q-119 -67 -291 -67q-130 0 -257.5 41.5t-221.5 120.5q-62 54 -105.5 163.5t-71 263t-39.5 315.5t-12 319q0 239 23 413l-172 41zM98 2179q0 64 30.5 159t133.5 95q112 -5 187 -63t75 -146q0 -29 -8 -53q-29 -108 -87.5 -168.5t-141.5 -60.5 q-48 5 -91 34t-70.5 82.5t-27.5 120.5zM762 2204q0 64 30.5 159t133.5 95q70 -3 130.5 -31t96 -74t35.5 -104q0 -29 -8 -54q-29 -108 -88 -168.5t-142 -60.5q-74 6 -131 71t-57 167z" />
<glyph unicode="&#xdd;" horiz-adv-x="1434" d="M-156 1819l607 -41l409 -762l238 688l483 -25l-762 -1982l-483 -41l295 844l-574 1048l-204 17zM238 2114l532 294l229 -352l-647 -123z" />
<glyph unicode="&#xdf;" horiz-adv-x="1229" d="M8 1376q0 134 72.5 216.5t146 114t109.5 38.5q166 61 323 61t272.5 -64t174.5 -186q12 -27 12 -57q0 -134 -200 -377q9 -1 31 -8.5t64 -33t92.5 -76t98.5 -127.5q103 -165 103 -306q0 -171 -126 -288.5t-298 -188.5l-162 404q139 83 139 182q0 43 -60.5 108t-94.5 72 q-47 -46 -85.5 -69t-54.5 -29l221 -901l-434 82l-327 1310q-17 59 -17 123zM451 1360l57 -295q55 54 138 148t83 141q0 17 -16 22q-98 27 -138 27q-64 0 -124 -43z" />
<glyph unicode="&#xe0;" horiz-adv-x="1024" d="M-39 520q0 241 139 389q120 126 247.5 191t260.5 65q37 0 56 -2l8 -8l418 188l8 -559q8 -52 8 -118q0 -58 -4 -86l12 -613l-450 -24v61q-110 -45 -222 -45q-86 0 -161.5 26t-130.5 70q-89 74 -139 199.5t-50 265.5zM131 1450l229 352l533 -295l-115 -180zM383 705 q0 -91 86 -148q76 -51 154 -51q15 0 41 4v213q-27 0 -48 14q-30 24 -30 92q0 98 78 150q-55 -7 -108.5 -35t-91.5 -66t-59.5 -83.5t-21.5 -89.5z" />
<glyph unicode="&#xe1;" horiz-adv-x="1024" d="M-39 520q0 241 139 389q120 126 247.5 191t260.5 65q37 0 56 -2l8 -8l418 188l8 -559q8 -52 8 -118q0 -58 -4 -86l12 -613l-450 -24v61q-110 -45 -222 -45q-86 0 -161.5 26t-130.5 70q-89 74 -139 199.5t-50 265.5zM131 1507l533 295l229 -352l-647 -123zM383 705 q0 -91 86 -148q76 -51 154 -51q15 0 41 4v213q-27 0 -48 14q-30 24 -30 92q0 98 78 150q-55 -7 -108.5 -35t-91.5 -66t-59.5 -83.5t-21.5 -89.5z" />
<glyph unicode="&#xe2;" horiz-adv-x="1024" d="M-41 1450l41 279l524 172l574 -197l24 -279l-598 197zM-39 520q0 241 139 389q120 126 247.5 191t260.5 65q37 0 56 -2l8 -8l418 188l8 -559q8 -52 8 -118q0 -58 -4 -86l12 -613l-450 -24v61q-110 -45 -222 -45q-86 0 -161.5 26t-130.5 70q-89 74 -139 199.5t-50 265.5z M383 705q0 -91 86 -148q76 -51 154 -51q15 0 41 4v213q-27 0 -48 14q-30 24 -30 92q0 98 78 150q-55 -7 -108.5 -35t-91.5 -66t-59.5 -83.5t-21.5 -89.5z" />
<glyph unicode="&#xe3;" horiz-adv-x="1024" d="M-39 520q0 241 139 389q120 126 247.5 191t260.5 65q37 0 56 -2l8 -8l418 188l8 -559q8 -52 8 -118q0 -58 -4 -86l12 -613l-450 -24v61q-110 -45 -222 -45q-86 0 -161.5 26t-130.5 70q-89 74 -139 199.5t-50 265.5zM-16 1524l24 229q42 26 132 65.5t188 39.5 q108 0 172 -72q65 -76 188 -76q77 0 155.5 28t129.5 71t51 83l49 -352q-67 -22 -201 -56t-233 -34q-87 0 -115 33q-38 48 -112.5 71t-163.5 23q-146 0 -264 -53zM383 705q0 -91 86 -148q76 -51 154 -51q15 0 41 4v213q-27 0 -48 14q-30 24 -30 92q0 98 78 150 q-55 -7 -108.5 -35t-91.5 -66t-59.5 -83.5t-21.5 -89.5z" />
<glyph unicode="&#xe4;" horiz-adv-x="1024" d="M-39 520q0 241 139 389q120 126 247.5 191t260.5 65q37 0 56 -2l8 -8l418 188l8 -559q8 -52 8 -118q0 -58 -4 -86l12 -613l-450 -24v61q-110 -45 -222 -45q-86 0 -161.5 26t-130.5 70q-89 74 -139 199.5t-50 265.5zM-33 1638q0 64 30.5 159t133.5 95q111 -5 186.5 -64 t75.5 -145q0 -28 -8 -53q-29 -108 -87.5 -168.5t-141.5 -60.5q-75 7 -132 71t-57 166zM383 705q0 -91 86 -148q76 -51 154 -51q15 0 41 4v213q-27 0 -48 14q-30 24 -30 92q0 98 78 150q-55 -7 -108.5 -35t-91.5 -66t-59.5 -83.5t-21.5 -89.5zM631 1663q0 64 30.5 159 t133.5 95q111 -5 186.5 -64t75.5 -145q0 -29 -8 -53q-28 -106 -87.5 -168t-142.5 -62q-50 5 -92.5 35t-69 83t-26.5 120z" />
<glyph unicode="&#xe5;" horiz-adv-x="1024" d="M-39 520q0 241 139 389q120 126 247.5 191t260.5 65q37 0 56 -2l8 -8l418 188l8 -559q8 -52 8 -118q0 -58 -4 -86l12 -613l-450 -24v61q-110 -45 -222 -45q-86 0 -161.5 26t-130.5 70q-89 74 -139 199.5t-50 265.5zM336 1663q0 64 30.5 159t133.5 95q111 -5 186.5 -64 t75.5 -145q0 -29 -8 -53q-28 -106 -87.5 -168t-142.5 -62q-50 5 -92.5 35t-69 83t-26.5 120zM383 705q0 -91 86 -148q76 -51 154 -51q15 0 41 4v213q-27 0 -48 14q-30 24 -30 92q0 98 78 150q-55 -7 -108.5 -35t-91.5 -66t-59.5 -83.5t-21.5 -89.5z" />
<glyph unicode="&#xe6;" horiz-adv-x="1843" d="M-39 520q0 241 139 389q120 126 247.5 191t260.5 65q37 0 56 -2l8 -8l418 188l8 -270q160 49 274 49q69 0 134.5 -18t137 -54t158.5 -92l-549 -655q73 0 138.5 30.5t120.5 87t98 132.5l241 -291q-30 -84 -144 -153.5t-273 -108.5t-306 -39q-124 0 -220 28t-146 85 l-139 -74q-131 -25 -222 -25q-154 0 -251 80q-89 74 -139 199.5t-50 265.5zM383 705q0 -91 86 -148q76 -51 154 -51q15 0 41 4v213q-27 0 -48 14q-30 24 -30 92q0 98 78 150q-55 -7 -108.5 -35t-91.5 -66t-59.5 -83.5t-21.5 -89.5zM995 561q0 -35 7 -67t24 -88l307 380 q-49 25 -100 25q-54 0 -104.5 -22t-71.5 -52q-62 -80 -62 -176z" />
<glyph unicode="&#xe7;" horiz-adv-x="1229" d="M-84 899q0 148 34.5 284t113 245.5t216.5 178.5t334 72q130 0 256 -30.5t231 -85t180.5 -133t98.5 -168.5l-448 -293q-45 112 -301 112q-58 0 -119 -83t-61 -187q5 -79 47 -151.5t149 -77.5q80 0 168 43t152 172q4 -8 83 -75t161.5 -134t121.5 -99q-141 -341 -489 -434 q186 -135 186 -260q0 -94 -91.5 -164.5t-185 -106.5t-139.5 -48l-352 254q77 6 193 41t116 123q0 59 -79 137q-160 19 -281.5 100t-198.5 247.5t-94 432.5q-2 29 -2 88z" />
<glyph unicode="&#xe8;" horiz-adv-x="1024" d="M-23 410q0 150 54.5 295.5t115.5 203.5q73 69 158.5 115t177.5 69t189 23q127 0 241.5 -40.5t200.5 -117.5l-549 -655q73 0 138.5 30.5t120.5 87t98 132.5l241 -291q-29 -84 -137.5 -154t-258 -110.5t-298.5 -40.5q-132 0 -235.5 35t-159.5 106q-97 122 -97 312z M131 1450l229 352l533 -295l-115 -180zM307 561q0 -35 7 -67t24 -88l307 380q-49 25 -100 25q-54 0 -104.5 -22t-71.5 -52q-62 -80 -62 -176z" />
<glyph unicode="&#xe9;" horiz-adv-x="1024" d="M-23 410q0 150 54.5 295.5t115.5 203.5q73 69 158.5 115t177.5 69t189 23q127 0 241.5 -40.5t200.5 -117.5l-549 -655q73 0 138.5 30.5t120.5 87t98 132.5l241 -291q-29 -84 -137.5 -154t-258 -110.5t-298.5 -40.5q-132 0 -235.5 35t-159.5 106q-97 122 -97 312z M131 1507l533 295l229 -352l-647 -123zM307 561q0 -35 7 -67t24 -88l307 380q-49 25 -100 25q-54 0 -104.5 -22t-71.5 -52q-62 -80 -62 -176z" />
<glyph unicode="&#xea;" horiz-adv-x="1024" d="M-41 1450l41 279l524 172l574 -197l24 -279l-598 197zM-23 410q0 150 54.5 295.5t115.5 203.5q73 69 158.5 115t177.5 69t189 23q127 0 241.5 -40.5t200.5 -117.5l-549 -655q73 0 138.5 30.5t120.5 87t98 132.5l241 -291q-29 -84 -137.5 -154t-258 -110.5t-298.5 -40.5 q-132 0 -235.5 35t-159.5 106q-97 122 -97 312zM307 561q0 -35 7 -67t24 -88l307 380q-49 25 -100 25q-54 0 -104.5 -22t-71.5 -52q-62 -80 -62 -176z" />
<glyph unicode="&#xeb;" horiz-adv-x="1024" d="M-33 1638q0 64 30.5 159t133.5 95q111 -5 186.5 -64t75.5 -145q0 -28 -8 -53q-29 -108 -87.5 -168.5t-141.5 -60.5q-75 7 -132 71t-57 166zM-23 410q0 150 54.5 295.5t115.5 203.5q73 69 158.5 115t177.5 69t189 23q127 0 241.5 -40.5t200.5 -117.5l-549 -655 q73 0 138.5 30.5t120.5 87t98 132.5l241 -291q-29 -84 -137.5 -154t-258 -110.5t-298.5 -40.5q-132 0 -235.5 35t-159.5 106q-97 122 -97 312zM307 561q0 -35 7 -67t24 -88l307 380q-49 25 -100 25q-54 0 -104.5 -22t-71.5 -52q-62 -80 -62 -176zM631 1663q0 64 30.5 159 t133.5 95q111 -5 186.5 -64t75.5 -145q0 -29 -8 -53q-28 -106 -87.5 -168t-142.5 -62q-50 5 -92.5 35t-69 83t-26.5 120z" />
<glyph unicode="&#xec;" horiz-adv-x="512" d="M-82 827l49 246l508 213l66 -1474l-451 -25l-24 1073zM131 1450l229 352l533 -295l-115 -180z" />
<glyph unicode="&#xed;" horiz-adv-x="512" d="M-82 827l49 246l508 213l66 -1474l-451 -25l-24 1073zM131 1507l533 295l229 -352l-647 -123z" />
<glyph unicode="&#xee;" horiz-adv-x="512" d="M-344 1425l41 279l524 172l574 -197l24 -278l-598 196zM-82 827l49 246l508 213l66 -1474l-451 -25l-24 1073z" />
<glyph unicode="&#xef;" horiz-adv-x="512" d="M-336 1647q0 64 30.5 159t133.5 95q70 -3 130.5 -31t96 -74t35.5 -104q0 -29 -8 -54q-29 -108 -87.5 -168.5t-141.5 -60.5q-75 7 -132 71.5t-57 166.5zM-82 827l49 246l508 213l66 -1474l-451 -25l-24 1073zM328 1671q0 64 30.5 159t133.5 95q111 -5 186.5 -64t75.5 -145 q0 -30 -9 -53q-30 -109 -88 -169t-141 -60q-49 5 -92 34.5t-69.5 82.5t-26.5 120z" />
<glyph unicode="&#xf0;" horiz-adv-x="1024" d="M-39 520q0 241 139 389q81 86 177.5 150t196.5 97.5t192 33.5q30 0 47 -2l12 368q-21 97 -59 145t-84 48q-53 0 -106 -53t-91 -140l-135 435q175 98 356 98q138 0 266 -57q92 -42 136 -90.5t69 -155.5l21 -1002q8 -52 8 -118q0 -58 -4 -86l12 -613l-418 -24v61 q-109 -45 -231 -45q-93 0 -177 26.5t-138 69.5q-89 74 -139 199.5t-50 265.5zM383 705q0 -91 86 -148q76 -51 154 -51q15 0 41 4v213q-27 0 -48 14q-30 24 -30 92q0 98 78 150q-55 -7 -108.5 -35t-91.5 -66t-59.5 -83.5t-21.5 -89.5z" />
<glyph unicode="&#xf1;" horiz-adv-x="1229" d="M-16 1171l393 50l57 -66q111 37 191 56.5t153 19.5q98 0 172 -43q89 -51 192 -174t128 -228q53 -213 53 -372q0 -84 -11 -176.5t-34 -237.5l-418 -25q2 50 2 144q0 392 -108 667q-42 103 -82 103q-52 0 -115 -144q-15 -35 -24.5 -80t-14 -101t-4.5 -132q0 -154 18 -391 l-491 -57q-12 88 -22 175t-15.5 161.5t-5.5 160.5q0 37 4 107zM-16 1524l24 229q42 26 132 65.5t188 39.5q108 0 172 -72q65 -76 188 -76q77 0 155.5 28t129.5 71t51 83l49 -352q-67 -22 -201 -56t-233 -34q-87 0 -115 33q-38 48 -112.5 71t-163.5 23q-146 0 -264 -53z" />
<glyph unicode="&#xf2;" horiz-adv-x="1024" d="M-39 520q0 241 139 389q119 127 246 191.5t260 64.5q78 0 150 -19.5t151 -62.5q71 -38 115.5 -102.5t65 -145t20.5 -167.5q0 -72 -11.5 -139t-31.5 -123t-47 -95q-63 -94 -135 -162t-147 -109.5t-148.5 -61t-145.5 -19.5q-85 0 -161.5 26.5t-130.5 69.5 q-89 74 -139 199.5t-50 265.5zM131 1450l229 352l533 -295l-115 -180zM383 705q0 -93 86 -148q80 -51 152 -51q71 0 126 47.5t84 122t29 147.5q0 50 -12 92q-17 -76 -73.5 -134t-110.5 -58q-27 0 -48 14q-30 24 -30 84q0 46 30.5 91t96.5 71q-66 0 -127.5 -25t-105.5 -64.5 t-70.5 -89t-26.5 -99.5z" />
<glyph unicode="&#xf3;" horiz-adv-x="1024" d="M-39 520q0 241 139 389q119 127 246 191.5t260 64.5q78 0 150 -19.5t151 -62.5q71 -38 115.5 -102.5t65 -145t20.5 -167.5q0 -72 -11.5 -139t-31.5 -123t-47 -95q-63 -94 -135 -162t-147 -109.5t-148.5 -61t-145.5 -19.5q-85 0 -161.5 26.5t-130.5 69.5 q-89 74 -139 199.5t-50 265.5zM131 1507l533 295l229 -352l-647 -123zM383 705q0 -93 86 -148q80 -51 152 -51q71 0 126 47.5t84 122t29 147.5q0 50 -12 92q-17 -76 -73.5 -134t-110.5 -58q-27 0 -48 14q-30 24 -30 84q0 46 30.5 91t96.5 71q-66 0 -127.5 -25t-105.5 -64.5 t-70.5 -89t-26.5 -99.5z" />
<glyph unicode="&#xf4;" horiz-adv-x="1024" d="M-41 1450l41 279l524 172l574 -197l24 -279l-598 197zM-39 520q0 241 139 389q119 127 246 191.5t260 64.5q78 0 150 -19.5t151 -62.5q71 -38 115.5 -102.5t65 -145t20.5 -167.5q0 -72 -11.5 -139t-31.5 -123t-47 -95q-63 -94 -135 -162t-147 -109.5t-148.5 -61 t-145.5 -19.5q-85 0 -161.5 26.5t-130.5 69.5q-89 74 -139 199.5t-50 265.5zM383 705q0 -93 86 -148q80 -51 152 -51q71 0 126 47.5t84 122t29 147.5q0 50 -12 92q-17 -76 -73.5 -134t-110.5 -58q-27 0 -48 14q-30 24 -30 84q0 46 30.5 91t96.5 71q-66 0 -127.5 -25 t-105.5 -64.5t-70.5 -89t-26.5 -99.5z" />
<glyph unicode="&#xf5;" horiz-adv-x="1024" d="M-39 520q0 241 139 389q119 127 246 191.5t260 64.5q78 0 150 -19.5t151 -62.5q71 -38 115.5 -102.5t65 -145t20.5 -167.5q0 -72 -11.5 -139t-31.5 -123t-47 -95q-63 -94 -135 -162t-147 -109.5t-148.5 -61t-145.5 -19.5q-85 0 -161.5 26.5t-130.5 69.5 q-89 74 -139 199.5t-50 265.5zM-16 1524l24 229q42 26 132 65.5t188 39.5q108 0 172 -72q65 -76 188 -76q77 0 155.5 28t129.5 71t51 83l49 -352q-67 -22 -201 -56t-233 -34q-87 0 -115 33q-38 48 -112.5 71t-163.5 23q-146 0 -264 -53zM383 705q0 -93 86 -148 q80 -51 152 -51q71 0 126 47.5t84 122t29 147.5q0 50 -12 92q-17 -76 -73.5 -134t-110.5 -58q-27 0 -48 14q-30 24 -30 84q0 46 30.5 91t96.5 71q-66 0 -127.5 -25t-105.5 -64.5t-70.5 -89t-26.5 -99.5z" />
<glyph unicode="&#xf6;" horiz-adv-x="1024" d="M-39 520q0 241 139 389q119 127 246 191.5t260 64.5q78 0 150 -19.5t151 -62.5q71 -38 115.5 -102.5t65 -145t20.5 -167.5q0 -72 -11.5 -139t-31.5 -123t-47 -95q-63 -94 -135 -162t-147 -109.5t-148.5 -61t-145.5 -19.5q-85 0 -161.5 26.5t-130.5 69.5 q-89 74 -139 199.5t-50 265.5zM-33 1638q0 64 30.5 159t133.5 95q111 -5 186.5 -64t75.5 -145q0 -28 -8 -53q-29 -108 -87.5 -168.5t-141.5 -60.5q-75 7 -132 71t-57 166zM383 705q0 -93 86 -148q80 -51 152 -51q71 0 126 47.5t84 122t29 147.5q0 50 -12 92 q-17 -76 -73.5 -134t-110.5 -58q-27 0 -48 14q-30 24 -30 84q0 46 30.5 91t96.5 71q-66 0 -127.5 -25t-105.5 -64.5t-70.5 -89t-26.5 -99.5zM631 1663q0 64 30.5 159t133.5 95q111 -5 186.5 -64t75.5 -145q0 -29 -8 -53q-28 -106 -87.5 -168t-142.5 -62q-50 5 -92.5 35 t-69 83t-26.5 120z" />
<glyph unicode="&#xf7;" horiz-adv-x="922" d="M-8 795l24 270l959 90l-33 -328zM238 1380q0 86 40.5 160t131.5 82q71 0 122.5 -23.5t84.5 -57t45 -58.5q12 -28 12 -60q0 -49 -21 -98.5t-51.5 -87t-56.5 -41.5q-54 -8 -78 -8q-98 0 -158 51t-71 141zM262 479q0 86 41.5 160t130.5 82q70 0 122.5 -23.5t84.5 -55.5 t44.5 -60t12.5 -60q0 -47 -20.5 -97.5t-51.5 -88t-57 -41.5q-52 -8 -77 -8q-100 0 -159.5 51.5t-70.5 140.5z" />
<glyph unicode="&#xf8;" horiz-adv-x="1024" d="M-156 57l166 197q-51 124 -51 266q0 110 35.5 212t105.5 177q118 125 246 190.5t260 65.5q129 0 252 -57l100 137q24 -21 76.5 -67t99 -89.5t46.5 -48.5l-131 -147q53 -118 53 -256q0 -93 -22.5 -180.5t-61.5 -145.5q-63 -94 -135 -162t-147 -109.5t-148.5 -61 t-145.5 -19.5q-113 0 -213 47l-155 -137zM383 705q0 -93 86 -148q80 -51 152 -51q71 0 126 47.5t84 122t29 147.5q0 50 -12 92q-17 -76 -73.5 -134t-110.5 -58q-27 0 -48 14q-30 24 -30 84q0 46 30.5 91t96.5 71q-66 0 -127.5 -25t-105.5 -64.5t-70.5 -89t-26.5 -99.5z" />
<glyph unicode="&#xf9;" horiz-adv-x="1229" d="M0 748q0 86 5.5 166t14.5 163.5t21 167.5l491 -57q-18 -237 -18 -391q0 -77 4.5 -133t14.5 -102t24 -79q63 -143 115 -143q40 0 82 102q28 71 50 139.5t34 130.5t18 136t6 162t-2 137l418 -25q33 -207 39 -249.5t6 -106.5q0 -109 -53 -324q-26 -109 -115 -229t-172 -168 q-130 -74 -303 -74q-120 0 -233.5 34t-208.5 101q-89 62 -142.5 162t-74.5 218t-21 262zM287 1450l229 352l533 -295l-115 -180z" />
<glyph unicode="&#xfa;" horiz-adv-x="1229" d="M0 748q0 86 5.5 166t14.5 163.5t21 167.5l491 -57q-18 -237 -18 -391q0 -77 4.5 -133t14.5 -102t24 -79q63 -143 115 -143q40 0 82 102q28 71 50 139.5t34 130.5t18 136t6 162t-2 137l418 -25q33 -207 39 -249.5t6 -106.5q0 -109 -53 -324q-26 -109 -115 -229t-172 -168 q-130 -74 -303 -74q-120 0 -233.5 34t-208.5 101q-89 62 -142.5 162t-74.5 218t-21 262zM319 1524l533 295l229 -353l-647 -123z" />
<glyph unicode="&#xfb;" horiz-adv-x="1229" d="M0 748q0 86 5.5 166t14.5 163.5t21 167.5l491 -57q-18 -237 -18 -391q0 -77 4.5 -133t14.5 -102t24 -79q63 -143 115 -143q40 0 82 102q28 71 50 139.5t34 130.5t18 136t6 162t-2 137l418 -25q33 -207 39 -249.5t6 -106.5q0 -109 -53 -324q-26 -109 -115 -229t-172 -168 q-130 -74 -303 -74q-120 0 -233.5 34t-208.5 101q-89 62 -142.5 162t-74.5 218t-21 262zM49 1442l41 278l524 172l574 -196l24 -279l-598 197z" />
<glyph unicode="&#xfc;" horiz-adv-x="1229" d="M0 748q0 86 5.5 166t14.5 163.5t21 167.5l491 -57q-18 -237 -18 -391q0 -77 4.5 -133t14.5 -102t24 -79q63 -143 115 -143q40 0 82 102q28 71 50 139.5t34 130.5t18 136t6 162t-2 137l418 -25q33 -207 39 -249.5t6 -106.5q0 -109 -53 -324q-26 -109 -115 -229t-172 -168 q-130 -74 -303 -74q-120 0 -233.5 34t-208.5 101q-89 62 -142.5 162t-74.5 218t-21 262zM74 1638q0 64 30.5 159t133.5 95q111 -5 186.5 -64t75.5 -145q0 -28 -8 -53q-29 -108 -88 -168.5t-142 -60.5q-49 5 -92 34.5t-69.5 82.5t-26.5 120zM737 1663q0 64 30.5 159t133.5 95 q111 -5 186.5 -64t75.5 -145q0 -29 -8 -53q-28 -106 -87 -168t-142 -62q-49 5 -91.5 34.5t-70 83t-27.5 120.5z" />
<glyph unicode="&#xfd;" horiz-adv-x="1331" d="M-82 975l401 188l402 -745l246 688l442 -172l-745 -1802l-394 147l230 623zM254 1524l532 295l230 -353l-647 -123z" />
<glyph unicode="&#xff;" horiz-adv-x="1331" d="M-82 975l401 188l402 -745l246 688l442 -172l-745 -1802l-394 147l230 623zM98 1638q0 64 30.5 159t133.5 95q112 -5 187 -63t75 -146q0 -28 -8 -53q-29 -108 -87.5 -168.5t-141.5 -60.5q-48 5 -91 34t-70.5 82.5t-27.5 120.5zM762 1663q0 64 30.5 159t133.5 95 q111 -5 186.5 -64t75.5 -145q0 -29 -8 -53q-28 -106 -87.5 -168t-142.5 -62q-50 5 -92.5 35t-69 83t-26.5 120z" />
<glyph unicode="&#x152;" horiz-adv-x="2253" d="M-51 698q0 105 21.5 212.5t68 205t117.5 178.5q88 99 171.5 167.5t176 115.5t189.5 71.5t204 24.5q64 0 96 -4l1317 215l25 -434l-688 -115l16 -311l680 115l24 -361l-688 -131l33 -491l1049 -50l-8 -434l-1459 74l-53 487q-163 -153 -327.5 -222.5t-319.5 -69.5 q-214 0 -389 116q-74 49 -132.5 146.5t-91 228t-32.5 266.5zM739 1047q0 -116 68 -170q82 -66 164 -66q101 0 170 90t69 223q0 62 -14 117q-20 -112 -81 -185t-126 -73q-41 0 -71 31q-16 16 -26.5 48t-10.5 62q0 61 36.5 120.5t116.5 103.5q-96 0 -163.5 -44.5t-99.5 -113.5 t-32 -143z" />
<glyph unicode="&#x153;" horiz-adv-x="1843" d="M-39 520q0 241 139 389q243 258 508 258q149 0 299 -84q36 -19 59.5 -44.5t45.5 -61.5q97 65 205.5 97t224.5 32q125 0 240 -39t202 -117l-549 -655q73 0 138.5 30.5t120.5 87t98 132.5l241 -291q-29 -81 -136.5 -149.5t-258 -107t-295.5 -38.5q-134 0 -244 36t-168 109 q-90 -73 -190 -109t-199 -36q-85 0 -161.5 26.5t-130.5 69.5q-89 74 -139 199.5t-50 265.5zM383 705q0 -93 86 -148q80 -51 152 -51q71 0 126 47.5t84 122t29 147.5q0 50 -12 92q-17 -76 -73.5 -134t-110.5 -58q-27 0 -48 14q-30 24 -30 84q0 46 30.5 91t96.5 71 q-66 0 -127.5 -25t-105.5 -64.5t-70.5 -89t-26.5 -99.5zM1110 578q0 -26 4.5 -53t15 -64t11.5 -39l307 381q-49 24 -100 24q-57 0 -105.5 -21t-71.5 -52q-61 -80 -61 -176z" />
<glyph unicode="&#x178;" horiz-adv-x="1434" d="M-156 1819l607 -41l409 -762l238 688l483 -25l-762 -1982l-483 -41l295 844l-574 1048l-204 17zM98 2179q0 64 30.5 159t133.5 95q112 -5 187 -63t75 -146q0 -29 -8 -53q-29 -108 -87.5 -168.5t-141.5 -60.5q-48 5 -91 34t-70.5 82.5t-27.5 120.5zM762 2204 q0 64 30.5 159t133.5 95q70 -3 130.5 -31t96 -74t35.5 -104q0 -29 -8 -54q-29 -108 -88 -168.5t-142 -60.5q-74 6 -131 71t-57 167z" />
<glyph unicode="&#x2c6;" d="M-41 1450l41 279l524 172l574 -197l24 -279l-598 197z" />
<glyph unicode="&#x2dc;" d="M-16 1524l24 229q42 26 132 65.5t188 39.5q108 0 172 -72q65 -76 188 -76q77 0 155.5 28t129.5 71t51 83l49 -352q-67 -22 -201 -56t-233 -34q-87 0 -115 33q-38 48 -112.5 71t-163.5 23q-146 0 -264 -53z" />
<glyph unicode="&#x2000;" horiz-adv-x="1237" />
<glyph unicode="&#x2001;" horiz-adv-x="2474" />
<glyph unicode="&#x2002;" horiz-adv-x="1237" />
<glyph unicode="&#x2003;" horiz-adv-x="2474" />
<glyph unicode="&#x2004;" horiz-adv-x="824" />
<glyph unicode="&#x2005;" horiz-adv-x="618" />
<glyph unicode="&#x2006;" horiz-adv-x="412" />
<glyph unicode="&#x2007;" horiz-adv-x="412" />
<glyph unicode="&#x2008;" horiz-adv-x="309" />
<glyph unicode="&#x2009;" horiz-adv-x="494" />
<glyph unicode="&#x200a;" horiz-adv-x="137" />
<glyph unicode="&#x2010;" horiz-adv-x="922" d="M-8 795l24 270l959 90l-33 -328z" />
<glyph unicode="&#x2011;" horiz-adv-x="922" d="M-8 795l24 270l959 90l-33 -328z" />
<glyph unicode="&#x2012;" horiz-adv-x="922" d="M-8 795l24 270l959 90l-33 -328z" />
<glyph unicode="&#x2013;" horiz-adv-x="1331" d="M-8 795l24 270l1327 98l-32 -327z" />
<glyph unicode="&#x2014;" horiz-adv-x="922" d="M-8 795l24 270l959 90l-33 -328z" />
<glyph unicode="&#x2018;" horiz-adv-x="410" d="M20 1788l416 -59l-41 -609l-213 29z" />
<glyph unicode="&#x2019;" horiz-adv-x="410" d="M20 1788l416 -59l-41 -609l-213 29z" />
<glyph unicode="&#x201a;" horiz-adv-x="410" d="M-20 641l415 -59l-41 -609l-213 29z" />
<glyph unicode="&#x201c;" horiz-adv-x="1024" d="M-82 1788l416 -59l-41 -609l-213 29zM532 1788l416 -59l-41 -609l-213 29z" />
<glyph unicode="&#x201d;" horiz-adv-x="1024" d="M-82 1788l416 -59l-41 -609l-213 29zM532 1788l416 -59l-41 -609l-213 29z" />
<glyph unicode="&#x201e;" horiz-adv-x="1024" d="M-90 625l416 -60l-41 -608l-213 29zM524 625l416 -60l-41 -608l-213 29z" />
<glyph unicode="&#x2022;" horiz-adv-x="410" d="M-8 987q0 86 41.5 160t130.5 82q71 0 122.5 -23.5t84.5 -57t45 -58.5q12 -28 12 -60q0 -49 -21 -98.5t-51.5 -87t-56.5 -41.5q-54 -8 -78 -8q-99 0 -158.5 51.5t-70.5 140.5z" />
<glyph unicode="&#x2026;" horiz-adv-x="1331" d="M-8 176q0 86 41.5 160t130.5 82q71 0 122.5 -23.5t84.5 -57t45 -58.5q12 -28 12 -60q0 -49 -21 -98.5t-51.5 -87t-56.5 -41.5q-54 -8 -78 -8q-99 0 -158.5 51.5t-70.5 140.5zM483 184q0 86 41.5 160t130.5 82q70 0 122.5 -23.5t84.5 -55.5t45 -60q13 -31 13 -60 q0 -49 -21 -98.5t-51.5 -87t-56.5 -41.5q-54 -8 -78 -8q-98 0 -158 51t-72 141zM967 193q0 85 41.5 159t130.5 82q71 0 122.5 -23.5t84.5 -57t45 -58.5q12 -28 12 -59q0 -48 -21 -98.5t-51.5 -88t-56.5 -41.5q-54 -8 -78 -8q-66 0 -115 23t-78 67t-36 103z" />
<glyph unicode="&#x202f;" horiz-adv-x="494" />
<glyph unicode="&#x2039;" horiz-adv-x="1024" d="M8 1073l1204 475l-41 -344l-516 -155l475 -164l-49 -353z" />
<glyph unicode="&#x203a;" horiz-adv-x="1024" d="M-86 1548l1204 -475l-1073 -541l-49 353l475 164l-516 155z" />
<glyph unicode="&#x205f;" horiz-adv-x="618" />
<glyph unicode="&#x25fc;" horiz-adv-x="1255" d="M0 0v1255h1255v-1255h-1255z" />
</font>
</defs>
</svg>
